<?xml version="1.0" encoding="utf-8"?>
<!-- Generator: Adobe Illustrator 16.0.0, SVG Export Plug-In . SVG Version: 6.00 Build 0)  -->
<!DOCTYPE svg PUBLIC "-//W3C//DTD SVG 1.1//EN" "http://www.w3.org/Graphics/SVG/1.1/DTD/svg11.dtd">
<svg version="1.1" id="图层_1" xmlns="http://www.w3.org/2000/svg" xmlns:xlink="http://www.w3.org/1999/xlink" x="0px" y="0px"
	 width="841.891px" height="595.279px" viewBox="0 0 841.891 595.279" enable-background="new 0 0 841.891 595.279"
	 xml:space="preserve">
<path fill="#BFD50F" stroke="#000000" stroke-width="0.75" stroke-miterlimit="10" d="M11.811,11.865
	c-0.192,0.004-0.221,0.256-0.088,0.331c1.068,3.647,1.946,7.345,2.635,11.082c-1.068-0.763-2.105-1.566-3.106-2.417
	c-0.068-0.059-0.184-0.077-0.25,0c-0.688,0.797-1.377,1.594-2.065,2.391c0.375-3.715,0.789-7.43,1.064-11.153
	c0.089-0.081,0.047-0.268-0.109-0.29c-0.859-0.114-1.735-0.142-2.601-0.177c-0.465-0.019-1.032-0.118-1.527-0.048
	c1.695-2.629,3.158-5.437,4.602-8.212c1.513,2.811,3.026,5.623,4.54,8.433C13.874,11.825,12.842,11.845,11.811,11.865z"/>
</svg>
