<?xml version="1.0" encoding="utf-8"?>
<!-- Generator: Adobe Illustrator 16.0.0, SVG Export Plug-In . SVG Version: 6.00 Build 0)  -->
<!DOCTYPE svg PUBLIC "-//W3C//DTD SVG 1.1//EN" "http://www.w3.org/Graphics/SVG/1.1/DTD/svg11.dtd">
<svg version="1.1" id="图层_1" xmlns="http://www.w3.org/2000/svg" xmlns:xlink="http://www.w3.org/1999/xlink" x="0px" y="0px"
	 width="841.89px" height="595.28px" viewBox="0 0 841.89 595.28" enable-background="new 0 0 841.89 595.28" xml:space="preserve">
<path fill="#1E120C" d="M17.163,9.105c-0.291,0.8-2.058,2.127-2.515,1.712c-0.322-0.292,0.371-2.75,1.08-3.337
	c0.586-0.487,0.387-1.211,0.034-1.436c-0.37-0.235-1.244,0.146-1.041,1.205c0.176,0.922-0.792,3.326-1.501,3.222
	c-0.561-0.082-1.082-1.466-1.072-2.595c0.007-0.859-0.449-1.149-0.854-0.998c-0.528,0.198-0.657,0.841,0.023,1.396
	c0.581,0.473,0.913,2.134,0.554,2.394c-0.347,0.252-1.057-0.087-1.609-0.786C9.675,9.14,9.094,8.736,8.723,9.174
	c-0.415,0.49-0.139,1.171,0.934,1.171c0.728,0,1.401,0.818,1.341,1.154c-0.153,0.848,0.036,2.631,0.355,2.95
	c0.415,0.415,1.487-0.658,2.992-0.433c0.925,0.138,0.753-0.722,0.989-1.782c0.204-0.916,1.283-1.981,2.272-2.158
	c0.717-0.129,0.891-0.67,0.713-1.028C18.068,8.541,17.371,8.532,17.163,9.105z"/>
</svg>
