<?xml version="1.0" encoding="utf-8"?>
<!-- Generator: Adobe Illustrator 16.0.0, SVG Export Plug-In . SVG Version: 6.00 Build 0)  -->
<!DOCTYPE svg PUBLIC "-//W3C//DTD SVG 1.1//EN" "http://www.w3.org/Graphics/SVG/1.1/DTD/svg11.dtd">
<svg version="1.1" id="图层_1" xmlns="http://www.w3.org/2000/svg" xmlns:xlink="http://www.w3.org/1999/xlink" x="0px" y="0px"
	 width="841.89px" height="595.28px" viewBox="0 0 841.89 595.28" enable-background="new 0 0 841.89 595.28" xml:space="preserve">
<path fill="#2F1808" d="M11.392,15.958c-0.429-0.349-3.119-0.061-3.575-0.023c-0.123-0.966-0.27-1.924-0.427-2.874
	c0.743,0.028,3.732-0.052,4.432,0.234c0.507,0.206,0.889-0.541,0.379-0.773c-0.845-0.39-1.791-0.715-2.733-0.752
	c-0.058-0.327-0.11-0.659-0.169-0.981c-0.104-0.536-0.942-0.342-0.918,0.174c0.013,0.298,0.03,0.599,0.046,0.901
	c-0.206,0.045-0.411,0.105-0.611,0.193c-1.121,0.481-1.938,1.563-1.788,2.816c0.131,1.098,0.942,1.959,2.05,2.056
	c0.268,0.021,1.932-0.438,2.193-0.49c0.081,0.648,0.17,1.292,0.27,1.933c-0.414,0.055-2.244,0.482-2.628,0.531
	c-0.441,0.053-0.541,0.73-0.056,0.81c0.459,0.076,0.958,0.116,1.448,0.082c0.077,0.428,0.156,0.853,0.243,1.274
	c0.114,0.56,0.968,0.353,0.952-0.18c-0.014-0.44-0.049-0.889-0.076-1.333c0.418-0.161,0.801-0.403,1.102-0.769
	C12.195,17.976,12.261,16.662,11.392,15.958z"/>
</svg>
