<?xml version="1.0" encoding="utf-8"?>
<!-- Generator: Adobe Illustrator 16.0.0, SVG Export Plug-In . SVG Version: 6.00 Build 0)  -->
<!DOCTYPE svg PUBLIC "-//W3C//DTD SVG 1.1//EN" "http://www.w3.org/Graphics/SVG/1.1/DTD/svg11.dtd">
<svg version="1.1" id="图层_1" xmlns="http://www.w3.org/2000/svg" xmlns:xlink="http://www.w3.org/1999/xlink" x="0px" y="0px"
	 width="1200px" height="1000px" viewBox="0 0 1200 1000" enable-background="new 0 0 1200 1000"
	 xml:space="preserve">
<path fill="#DBA142" d="M88.099,56.026c-0.902-0.872-2.317-1.495-4.248-1.873c-1.93-0.375-3.213-0.71-3.852-1.006
	c-0.639-0.293-0.955-0.764-0.953-1.412c0.004-1.056,0.999-1.583,2.981-1.575c1.978,0.006,3.01,0.57,3.104,1.689l3.788-0.123
	c-0.167-2.413-1.794-3.82-4.875-4.22l0.011-3.005l-3.567-0.012l-0.008,2.985c-1.415,0.167-2.547,0.58-3.396,1.235
	c-1.151,0.89-1.731,1.983-1.736,3.274c-0.003,1.204,0.441,2.209,1.33,3.021c0.891,0.81,2.346,1.415,4.356,1.816
	c2.012,0.4,3.29,0.766,3.834,1.099c0.546,0.33,0.814,0.834,0.814,1.508c-0.006,1.523-1.131,2.281-3.379,2.272
	c-2.397-0.008-3.733-0.921-4.002-2.74l-3.745,0.289c0.53,2.963,2.486,4.664,5.864,5.107l-0.008,2.733l3.567,0.013l0.007-2.756
	c1.188-0.187,2.279-0.58,3.27-1.18c1.455-0.879,2.185-2.13,2.191-3.751C89.452,58.027,89.001,56.896,88.099,56.026z"/>
</svg>
