<?xml version="1.0" encoding="utf-8"?>
<!-- Generator: Adobe Illustrator 16.0.0, SVG Export Plug-In . SVG Version: 6.00 Build 0)  -->
<!DOCTYPE svg PUBLIC "-//W3C//DTD SVG 1.1//EN" "http://www.w3.org/Graphics/SVG/1.1/DTD/svg11.dtd">
<svg version="1.1" id="图层_1" xmlns="http://www.w3.org/2000/svg" xmlns:xlink="http://www.w3.org/1999/xlink" x="0px" y="0px"
	 width="878.566px" height="830.562px" viewBox="0 0 878.566 830.562" enable-background="new 0 0 878.566 830.562"
	 xml:space="preserve">
<rect x="24" y="18.173" fill="none" stroke="#000000" stroke-miterlimit="10" width="801" height="759.777"/>
<circle fill="#009944" stroke="#000000" stroke-miterlimit="10" cx="107" cy="90" r="42"/>
<rect x="217" y="48.239" fill="#CC562A" stroke="#000000" stroke-miterlimit="10" width="29" height="83.714"/>
<path fill="#CBD64C" stroke="#000000" stroke-miterlimit="10" d="M146,220.182c0,7.044-5.077,12.756-11.338,12.756H78.338
	c-6.262,0-11.338-5.711-11.338-12.756v-45.363c0-7.044,5.077-12.756,11.338-12.756h56.323c6.262,0,11.338,5.711,11.338,12.756
	L146,220.182L146,220.182z"/>
<polygon fill="#D4A63B" stroke="#000000" stroke-miterlimit="10" points="63.199,335.141 106.5,260.14 149.801,335.141 "/>
<polygon fill="#D4A63B" stroke="#000000" stroke-miterlimit="10" points="63.699,447.141 107,372.141 150.301,447.141 "/>
<polygon fill="#8FAB7B" stroke="#000000" stroke-width="1.0564" stroke-miterlimit="10" points="106.5,470.6 121.18,500.344 
	154.005,505.113 130.252,528.267 135.86,560.959 106.5,545.523 77.14,560.959 82.748,528.267 58.995,505.113 91.82,500.344 "/>
<g>
	<g>
		<path fill="#443831" d="M72.75,646.571c0.842-8.429,3.552-17.765,9.177-24.281c6.167-7.144,9.534-0.316,13.501,4.723
			c7.903,10.037,19.694,8.598,28.186,0.271c6.702-6.57,10.175-15.555,16.319-22.521c0.896-1.017,2.326-2.219,2.936-2.441
			c0.994-0.363,1.167-0.228,2.528,0.653c5.255,3.398,8.301,11.851,10.761,17.198c2.236,4.863,9.397,0.639,7.176-4.193
			c-3.995-8.689-12.215-27.192-24.892-20.717c-4.031,2.061-6.846,6.502-9.271,10.139c-3.108,4.658-5.867,9.582-9.479,13.884
			c-2.937,3.497-6.577,6.705-11.369,6.73c-6.554,0.034-9.536-10.165-14.405-13.422c-7.06-4.721-14.807-0.185-19.406,5.7
			c-6.212,7.944-9.082,18.391-10.069,28.279C63.908,651.903,72.223,651.852,72.75,646.571L72.75,646.571z"/>
	</g>
</g>
<g>
	<g>
		<path fill="#443831" d="M190.155,221.778c0.843-8.429,3.553-17.765,9.178-24.281c6.166-7.144,9.533-0.316,13.501,4.723
			c7.902,10.036,19.693,8.598,28.187,0.271c6.701-6.571,10.173-15.555,16.318-22.522c0.896-1.016,2.325-2.219,2.935-2.44
			c0.994-0.363,1.166-0.229,2.528,0.653c5.255,3.398,8.302,11.851,10.761,17.197c2.236,4.864,9.397,0.64,7.176-4.192
			c-3.994-8.689-12.215-27.192-24.891-20.717c-4.032,2.061-6.846,6.502-9.271,10.139c-3.108,4.658-5.867,9.582-9.479,13.884
			c-2.937,3.497-6.577,6.705-11.369,6.73c-6.554,0.033-9.537-10.165-14.406-13.423c-7.059-4.72-14.806-0.184-19.404,5.7
			c-6.213,7.945-9.083,18.392-10.07,28.28C181.312,227.11,189.628,227.058,190.155,221.778L190.155,221.778z"/>
	</g>
</g>
<path fill="#26656A" stroke="#000000" stroke-width="1.4413" stroke-miterlimit="10" d="M186,290.458c0,0,40.77,3.665,54.051-1.451
	c22.42-8.639,41.157-34.582,41.157-34.582l11.452,54.419c0,0-21.246-12.438-49.007-4.324c-25.864,7.559-47.563,30.621-47.563,30.621
	"/>
<line fill="none" stroke="#000000" stroke-width="1.4413" stroke-miterlimit="10" x1="186" y1="290.458" x2="196.09" y2="335.141"/>
<path fill="#8FABD0" stroke="#000000" stroke-miterlimit="10" d="M186.987,398.062v29.021c0,0,22.141-10.307,29.937-11.802
	c9.762-1.872,29.684-4.311,39.574-4c12.203,0.383,48.831,4,48.831,4s-24.784-12.739-33.442-15.641
	c-6.491-2.174-19.861-4.852-26.585-5.579c-7.711-0.835-23.227-2.138-30.95-1.478C207.428,393.177,186.987,398.062,186.987,398.062z"
	/>
<g>
	<path fill="#F0D358" d="M391.469,113.906c1.924,0.125,3.85,0.168,5.789,0.014c1.319-0.102,2.609-0.322,3.892-0.569
		c0.601-8.523,1.494-17.016,1.703-25.577c0.197-7.984-0.323-16.022-0.277-24.018c-3.268-0.184-6.518-0.262-9.784-0.237
		c0.071,7.72-0.659,15.592-0.851,23.208C391.712,95.775,391.742,104.852,391.469,113.906z"/>
	<path fill="#F0D358" d="M348.694,85.008c0.201,10.006,0.105,20.038-0.315,30.025c2.525-0.028,5.021-0.234,7.525-0.5
		c-0.101-9.892,0.128-19.838,0.26-29.742C353.676,84.835,351.19,84.889,348.694,85.008z"/>
	<path fill="#FFFFFF" d="M378.541,74.819c-2.566-0.338-5.131-0.579-7.729-0.712c-0.452,6.328-1.082,12.658-1.311,18.993
		c-0.244,6.787,0.216,13.756,0.063,20.615c1.944,0.171,3.893,0.296,5.852,0.28c0.495-0.005,0.982-0.047,1.475-0.075
		c0.226-6.238,0.978-12.544,1.187-18.695C378.309,88.429,378.308,81.617,378.541,74.819z"/>
	<path fill="#D79240" d="M391.719,100.497c-0.055,4.472-0.116,8.942-0.25,13.409c1.924,0.125,3.85,0.168,5.789,0.014
		c1.319-0.102,2.609-0.322,3.892-0.569c0.297-4.225,0.667-8.439,0.989-12.661C398.666,100.814,395.189,100.735,391.719,100.497z"/>
	<path fill="#D79240" d="M348.768,90.9c0.067,8.048-0.052,16.104-0.39,24.132c2.525-0.028,5.021-0.234,7.525-0.5
		c-0.068-6.839,0.021-13.704,0.124-20.563C353.577,93.019,351.169,91.965,348.768,90.9z"/>
	<path fill="#CBBFB7" d="M375.154,98.405c-1.896-0.326-3.809-0.632-5.72-0.963c-0.003,5.397,0.253,10.87,0.133,16.273
		c1.944,0.171,3.893,0.296,5.852,0.28c0.495-0.005,0.982-0.047,1.475-0.075c0.182-5.019,0.691-10.074,0.997-15.064
		C376.977,98.711,376.064,98.562,375.154,98.405z"/>
	<path fill="#FFFFFF" d="M428.656,60.472c-3.268-0.184-6.518-0.262-9.785-0.238c0.071,7.722-0.658,15.593-0.851,23.209
		c-0.228,9.049-0.198,18.126-0.471,27.179c1.924,0.124,3.852,0.168,5.789,0.017c1.318-0.105,2.608-0.324,3.892-0.571
		c0.6-8.523,1.494-17.014,1.704-25.577C429.129,76.507,428.61,68.469,428.656,60.472z"/>
	<path fill="#CBBFB7" d="M417.782,98.485c-0.052,4.047-0.11,8.094-0.232,12.137c1.924,0.124,3.852,0.168,5.789,0.017
		c1.318-0.105,2.608-0.324,3.892-0.571c0.091-1.286,0.189-2.57,0.289-3.854C423.855,104.379,420.543,101.69,417.782,98.485z"/>
	<g>
		<path fill="#2F1808" d="M443.511,120.449c-1.619-1.159-3.354-2.158-5.018-3.023c-1.395-0.726-2.784,1.474-1.461,2.373
			c0.525,0.356,1.021,0.756,1.518,1.148c-33.872,3.108-67.486,6.169-101.49,6.406c0.165-12.228-0.49-24.524-0.615-36.729
			c-0.147-14.415,1.073-29.371-0.151-43.755c0.949,0.812,1.906,1.615,2.899,2.376c1.199,0.917,2.661-0.542,1.869-1.781
			c-1.089-1.701-2.479-3.148-4.027-4.427l-2.867-2.094l-2.087,2.405c-0.932,1.134-1.832,2.289-2.747,3.39
			c-1.213,1.459,0.958,3.11,2.243,1.82c0.513-0.517,1.042-1.031,1.575-1.547c-1.393,13.579-0.312,27.808-0.218,41.402
			c0.091,12.904-0.175,26.024,0.668,38.956l0.204,2.779l3.193,0.187c34.358,1.909,69.212-1.699,103.296-5.642
			c-0.979,1.341-1.946,2.675-2.93,3.937c-1.112,1.433,0.992,3.129,2.183,1.771c1.382-1.577,2.889-3.149,4.37-4.757l2.464-2.78
			L443.511,120.449z"/>
		<path fill="#2F1808" d="M345.623,114.988l0.12,3.562l2.465,0.271c2.592,0.212,5.207,0.181,7.764-0.189l3.202-0.679l0.394-3.83
			c0.855-9.665,0.722-19.716-0.001-29.398l-0.33-3.984l-3.028-0.2c-2.546-0.049-5.12,0.187-7.605,0.658l-2.842,0.651l-0.119,3.347
			C345.334,95.123,345.314,105.075,345.623,114.988z M356.163,84.79c-0.132,9.904-0.359,19.852-0.26,29.742
			c-2.504,0.266-5,0.472-7.525,0.5c0.421-9.987,0.517-20.02,0.315-30.025C351.19,84.889,353.676,84.835,356.163,84.79z"/>
		<path fill="#2F1808" d="M365.815,93.824c-0.239,6.318-0.698,13.018-0.331,19.506l0.274,3.307l3.656,0.812
			c2.417,0.416,4.937,0.591,7.422,0.502l3.774-0.339l0.514-4.071c0.67-6.776,0.583-13.796,0.81-20.396
			c0.204-5.915,0.373-11.862,0.21-17.79l-0.151-3.72l-3.285-0.726c-2.522-0.45-5.089-0.639-7.652-0.582l-3.469,0.21l-0.466,3.459
			C366.336,80.588,366.063,87.32,365.815,93.824z M378.541,74.819c-0.233,6.798-0.232,13.609-0.463,20.406
			c-0.208,6.151-0.961,12.457-1.187,18.695c-0.491,0.028-0.979,0.07-1.475,0.075c-1.959,0.017-3.907-0.109-5.852-0.28
			c0.152-6.858-0.309-13.828-0.063-20.615c0.229-6.335,0.858-12.666,1.311-18.993C373.41,74.241,375.975,74.481,378.541,74.819z"/>
		<path fill="#2F1808" d="M388.267,88.792c-0.179,8.253-0.445,16.546-0.349,24.814l0.067,3.384l3.354,0.626
			c3.145,0.408,6.426,0.347,9.555-0.22l3.501-0.87l0.562-3.961c1.062-8.456,1.336-17.094,1.565-25.542
			c0.205-7.543,0.515-15.375-0.139-23.004l-0.352-3.247l-3.396-0.666c-3.288-0.503-6.632-0.591-9.949-0.304l-3.46,0.438
			l-0.345,3.372C388.168,71.952,388.443,80.592,388.267,88.792z M402.575,63.756c-0.046,7.995,0.475,16.033,0.277,24.018
			c-0.209,8.562-1.104,17.053-1.703,25.577c-1.282,0.247-2.572,0.468-3.892,0.569c-1.939,0.154-3.865,0.111-5.789-0.014
			c0.273-9.054,0.243-18.13,0.472-27.18c0.191-7.615,0.922-15.487,0.851-23.208C396.058,63.494,399.308,63.573,402.575,63.756z"/>
		<path fill="#2F1808" d="M414.349,85.508c-0.18,8.255-0.447,16.547-0.35,24.813l0.067,3.385l3.354,0.626
			c3.144,0.409,6.426,0.35,9.553-0.219l3.502-0.869l0.562-3.961c1.062-8.456,1.336-17.095,1.566-25.542
			c0.205-7.542,0.513-15.375-0.139-23.004l-0.353-3.247l-3.396-0.665c-3.287-0.504-6.633-0.591-9.949-0.306l-3.46,0.438
			l-0.343,3.373C414.25,68.669,414.524,77.309,414.349,85.508z M428.656,60.472c-0.046,7.997,0.474,16.035,0.278,24.019
			c-0.21,8.563-1.104,17.054-1.704,25.577c-1.282,0.247-2.572,0.465-3.892,0.571c-1.938,0.151-3.865,0.107-5.789-0.017
			c0.271-9.053,0.243-18.13,0.471-27.179c0.192-7.616,0.922-15.487,0.851-23.209C422.139,60.21,425.389,60.289,428.656,60.472z"/>
	</g>
</g>
<g>
	<path fill="#F6AF29" d="M362.161,292.202c-0.021-0.029-0.05-0.052-0.091-0.063C362.105,292.191,362.135,292.208,362.161,292.202z"
		/>
	<path fill="#F6AF29" d="M369.776,315.422l-0.245-0.179C369.677,315.374,369.741,315.415,369.776,315.422z"/>
	<path fill="#F6AF29" d="M366.728,278.237c-0.003,0.021,0.003,0.025,0.003,0.041c0.121-0.192,0.285-0.454,0.554-0.878
		L366.728,278.237z"/>
	<path fill="#F6AF29" d="M414.887,305.13l-0.14,0.319C414.812,305.305,414.861,305.218,414.887,305.13z"/>
	<path fill="#F6AF29" d="M389.85,323.735c0.101-0.045,0.27-0.072,0.436-0.107C390.074,323.65,389.905,323.664,389.85,323.735z"/>
	<path fill="#F6AF29" d="M372.89,273.458l-0.371,0.189C372.567,273.683,372.707,273.625,372.89,273.458z"/>
	<path fill="#F6AF29" d="M384.608,265.86c-0.015-0.006-0.019-0.015-0.044-0.021C384.546,265.857,384.57,265.86,384.608,265.86z"/>
	<path fill="#F6AF29" d="M379.189,267.428c-0.103,0.069-0.216,0.156-0.332,0.246C379.006,267.589,379.201,267.486,379.189,267.428z"
		/>
	<path fill="#F6AF29" d="M378.702,267.797c0.051-0.041,0.103-0.082,0.154-0.123C378.765,267.73,378.689,267.777,378.702,267.797z"/>
	<path fill="#F6AF29" d="M388.814,286.902c-0.391,0.3-0.636,0.645-0.877,0.995c0,0,0.051-0.064,0.126-0.157
		c0.073-0.096,0.181-0.221,0.294-0.345c0.11-0.124,0.222-0.247,0.306-0.342C388.755,286.963,388.814,286.902,388.814,286.902z"/>
	<path fill="#F6AF29" d="M389.164,272.809l0.092-0.07C389.164,272.771,389.15,272.793,389.164,272.809z"/>
	<path fill="#F6AF29" d="M389.116,288.194l-0.255,0.179C388.961,288.314,389.044,288.255,389.116,288.194z"/>
	<path fill="#F6AF29" d="M368.739,279.542c-0.104,0.401-0.594,1.069-0.482,1.119C368.434,280.274,368.787,279.788,368.739,279.542z"
		/>
	<path fill="#F6AF29" d="M382.229,281.076l-0.185,0.148C382.136,281.157,382.189,281.112,382.229,281.076z"/>
	<path fill="#F6AF29" d="M389.116,288.194l0.295-0.208c-0.039-0.001-0.083,0.01-0.125,0.018
		C389.238,288.069,389.183,288.133,389.116,288.194z"/>
	<path fill="#F6AF29" d="M388.941,310.822c-0.006-0.002-0.008-0.003-0.019-0.003c-0.041,0.003-0.073,0.006-0.115,0.009
		L388.941,310.822z"/>
	<path fill="#F6AF29" d="M391.981,311.103c-0.215,0.021-0.423,0.042-0.654,0.065C391.675,311.172,391.857,311.142,391.981,311.103z"
		/>
	<path fill="#F6AF29" d="M387.938,287.897c0,0-0.115,0.143-0.229,0.288c-0.106,0.146-0.212,0.291-0.212,0.291
		C387.66,288.28,387.801,288.088,387.938,287.897z"/>
	<path fill="#F6AF29" d="M405.482,286.208c0.058,0.102,0.097,0.197,0.146,0.288C405.575,286.367,405.532,286.271,405.482,286.208z"
		/>
	<path fill="#F6AF29" d="M387.731,323.753c-0.067-0.016-0.162-0.023-0.243-0.037C387.462,323.746,387.477,323.77,387.731,323.753z"
		/>
	<polygon fill="#F6AF29" points="403.82,313.486 403.824,313.48 403.823,313.479 	"/>
	<path fill="#F6AF29" d="M403.202,314.246c0.256-0.168,0.513-0.532,0.617-0.76C403.591,313.688,403.405,313.902,403.202,314.246z"/>
	<path fill="#F6AF29" d="M405.358,312.099c-0.031,0.022-0.055,0.042-0.091,0.07C405.303,312.146,405.331,312.125,405.358,312.099z"
		/>
	<path fill="#F6AF29" d="M388.442,319.968c0,0.004-0.003,0.009,0,0.014c0.006-0.005,0.01-0.008,0.011-0.014H388.442z"/>
	<path fill="#F6AF29" d="M392.11,319.479c0.07,0.01,0.163,0.012,0.264,0.003C392.307,319.47,392.219,319.468,392.11,319.479z"/>
	<path fill="#F6AF29" d="M410.485,304.135c0,0.006,0.003,0.006,0.004,0.007c0.004-0.007,0.005-0.011,0.008-0.02
		C410.493,304.13,410.49,304.132,410.485,304.135z"/>
	<path fill="#F6AF29" d="M397.972,278.336c1.652,0.288,3.525,0.81,5.253,1.636c0.42,0.224,0.856,0.426,1.264,0.666
		c0.396,0.256,0.808,0.485,1.179,0.756c0.36,0.281,0.738,0.544,1.062,0.826c0.311,0.287,0.618,0.565,0.9,0.843
		c0.649,0.31,1.379,1.11,2.017,1.964l-0.24,0.295l0.562,0.674c0.093,0.354-0.415-0.528-0.201,0.069c0,0,0.096,0.038,0.183,0.082
		c0.089,0.044,0.177,0.086,0.177,0.086c-0.046,0.064,0.224,0.554,0.339,0.903c0.124,0.346,0.145,0.521-0.279-0.064
		c0,0,0.088,0.186,0.222,0.465c0.146,0.275,0.284,0.663,0.446,1.042c0.291,0.773,0.501,1.571,0.501,1.571
		c0.16,0.712,0.409,0.344,0.48,1.169c-0.079,0.184-0.121-0.279-0.238-0.187c0.093,1.218,0.291,1.896,0.532,2.59
		c0.193,0.691,0.428,1.401,0.221,2.59l-0.032-0.207c0.077,0.415-0.062,1.187-0.004,1.206c0.4-0.26-0.128-0.457,0.157-1.161
		c0.317,0.093,0.062,0.937,0.301,0.919c-0.089,0.279-0.11,0.506-0.121,0.729c-0.009,0.223,0.011,0.441-0.032,0.691
		c-0.358,0.803-0.564,2.035-1.002,2.577c-0.049,0.427,0.099,0.986-0.245,1.849c-0.477,0.518-0.147-0.229-0.593,0.556l0.106,0.203
		c-0.326,0.663-0.339,0.526-0.397,0.47c-0.352,0.7-0.061,0.702-0.636,1.521l0.106-0.568c-0.284,0.673-0.456,0.921-1,1.777
		c-0.074-0.071,0.148-0.411,0.319-0.655c-0.499,0.338-0.396,0.859-0.578,1.102c0.111-0.027,0.521-0.606,0.486-0.219
		c-0.293,0.414-0.393,1.048-0.774,1.227l0.17-0.557c-0.483,0.954-0.132,0.602-0.912,1.545c0.028-0.062-0.026-0.062-0.041-0.105
		c-0.292,0.752-1.083,1.423-1.875,2.238l0.109-0.192c-0.261,0.385-0.321,0.678-0.507,0.847c0.533-0.396,0.444-0.235,0.614-0.157
		c-0.82,0.416-0.673,1.216-1.866,2.051c-0.054-0.096,0.124-0.409,0.483-0.601c0.137-0.565,0.016-0.775,0.503-1.49
		c-0.312,0.438-0.742,0.893-0.734,0.71l0.077,0.319c-0.226,0.231-0.428,0.39-0.61,0.55c0.015,0.229,0.688-0.221,0.203,0.372
		c-0.578,0.642-0.53,0.082-0.548,0.268c-0.831,0.829-0.167,0.562-1.122,1.183c0.076-0.089,0.219-0.262,0.313-0.302
		c-0.704,0.412-1.569,1.237-1.965,1.074c0.057-0.131,0.019-0.221,0.282-0.374l0.021,0.052c0.285-0.357,0.144-0.238-0.06-0.078
		c-0.205,0.157-0.486,0.338-0.457,0.135c0.076,0.061-0.122,0.234-0.398,0.43c-0.276,0.188-0.636,0.378-0.858,0.496l0.246,0.099
		c-1.151,1.387-0.125-0.392-1.528,0.475c-0.867,0.602,0.378-0.128-0.126,0.296c-0.323,0.146-0.566,0.208-0.842,0.286
		c-0.274,0.08-0.572,0.204-1.033,0.436c-0.148,0.017-0.368,0.056-0.565,0.062c-0.199,0.002-0.377-0.026-0.438-0.128
		c-0.542,0.319-1.794,0.479-2.068,0.781c0.265-0.021,0.457-0.062,0.616-0.113c0.156-0.06,0.277-0.127,0.405-0.19
		c0.26-0.131,0.534-0.252,1.163-0.326l-0.247,0.334c-0.403,0.151-0.869,0.307-1.302,0.464c-0.438,0.128-0.844,0.265-1.143,0.275
		c0.126,0.02,0.192,0.064,0.131,0.128c-0.297,0.088-0.537,0.172-0.75,0.253c-0.217,0.073-0.406,0.138-0.593,0.202
		c-0.378,0.133-0.765,0.214-1.367,0.253c-0.176-0.19,0.522-0.234,1.024-0.323c-0.785-0.069-0.8,0.109-1.993,0.123
		c-0.073-0.181,0.8-0.048,0.919-0.239c0,0-0.325,0.041-0.649,0.08c-0.326,0.045-0.651,0.062-0.651,0.062
		c0.005-0.012-0.001-0.022-0.001-0.038c-0.089,0.155-0.34,0.155-0.668,0.129c-0.325-0.045-0.724-0.106-1.125-0.084
		c-1.876-0.157-2.222,0.151-3.338,0.163c-0.262-0.15-0.324-0.246-0.188-0.291c0.429,0.244,0.372,0.121,0.551,0.083
		c-0.322-0.062-0.649-0.221-0.845-0.368c-0.193-0.148-0.257-0.294-0.07-0.3c-0.996-0.211,0.307,0.262-0.315,0.174
		c0,0-0.334-0.108-0.669-0.214c-0.329-0.126-0.655-0.251-0.655-0.251c0.099,0.205,0.562,0.407-0.174,0.271
		c-0.304-0.08-0.514-0.18-0.748-0.281c-0.233-0.104-0.49-0.212-0.852-0.404c0.138-0.017-0.126-0.325,0.415-0.051
		c-0.324-0.229-0.87-0.49-1.146-0.476c0.714,0.562-1.348-0.597-0.887-0.059c0-0.002-0.182-0.14-0.354-0.296
		c-0.174-0.152-0.35-0.304-0.35-0.304c0.176,0.113,0.249,0.036,0.492,0.226c-0.093-0.342-0.665-0.333-0.947-0.49
		c-0.239-0.224-0.913-0.719-0.918-0.831c-0.272-0.111-0.827-0.554-0.854-0.729c-0.355-0.234-0.122,0.102-0.263,0.084l-1.105-0.942
		c0.026-0.148,0.177-0.502,0.374-0.402c-0.248-0.125-0.349-0.083-0.467-0.075c-0.118,0.007-0.257-0.013-0.54-0.312
		c0.505,0.144-0.634-0.899,0.06-0.646c-0.1-0.228-0.384-0.569-0.712-0.913c-0.329-0.343-0.648-0.736-0.917-0.979
		c-0.444-0.213,0.422,0.669,0.237,0.773c-0.346-0.379-0.64-0.645-0.902-0.853c-0.263-0.207-0.489-0.355-0.678-0.516
		c-0.393-0.308-0.733-0.581-1.142-1.232l0.185,0.356c-0.165-0.18-0.284-0.31-0.375-0.41c-0.083-0.104-0.142-0.18-0.198-0.241
		c-0.108-0.125-0.199-0.203-0.418-0.4c0.18,0.048,0.186-0.279,0.043-0.777c-0.163-0.484-0.378-1.188-0.748-1.874
		c-0.178-0.064,0.163,0.895-0.132,0.757l-0.499-0.93c-0.015-0.079,0.076,0.008,0.165,0.115c-0.266-0.398-0.323-0.852-0.404-1.201
		c-0.076-0.35-0.146-0.609-0.337-0.685c0,0,0.001-0.253,0.003-0.509c0.02-0.256,0.041-0.513,0.041-0.513l-0.045,0.41
		c-0.155-0.084-0.502-1.081-0.613-1.277c-0.24-0.492-0.317-0.856-0.354-1.165c-0.038-0.309-0.022-0.562-0.009-0.865
		c-0.062,0.199-0.196,0.717-0.423-0.114c0.373-0.063-0.131-1.794,0.084-1.8c-0.029-0.171-0.032-0.409-0.051-0.608
		c-0.019-0.198-0.029-0.359-0.12-0.371l0.262,0.032c-0.184-0.022-0.294-0.346-0.375-0.784c-0.074-0.439-0.153-0.992-0.168-1.475
		c0.494,0.212-0.038-1.06,0.41-1.476c-0.345-0.188-0.021-1.697-0.299-1.891c0.012-0.374,0.114-0.531,0.215-0.617
		c0.103-0.087,0.211-0.104,0.275-0.189l-0.075-0.354c0.103-0.174,0.208-0.603,0.311-1.082c0.124-0.48,0.279-1.008,0.41-1.396
		l-0.132-0.812l0.208-0.24c-0.041-0.134,0.089-0.759-0.122-0.407l0.126-0.396c-0.15-0.062-0.131-0.207-0.065-0.445
		c0.071-0.234,0.173-0.566,0.259-0.979c0.114-0.167,0.171-0.094,0.15,0.09c0.141-0.391,0.239-0.168,0.416-0.347
		c-0.179,0.257-0.045-1.607-0.557-0.596c-0.148,0.032-0.024-0.634,0.181-1l0.368-0.125l-0.084-0.573
		c0.224-0.613,0.49-0.8,0.748-1.257c-0.118,0.242-0.097,0.579,0.001,0.688c0.051,0.056,0.124,0.054,0.218-0.038
		c0.095-0.093,0.202-0.279,0.364-0.579c-0.156,0.321-0.207,0.593-0.248,0.818s-0.062,0.415-0.106,0.595
		c0.122-0.253,0.202-0.37,0.144,0.079c0.343-0.998-0.042-0.404,0.376-1.361c0.207,0.164,0.416-0.059,0.909-0.816l-0.48,0.513
		c-0.015-0.042-0.013-0.095-0.003-0.147c-0.145,0.215-0.214,0.263-0.327,0.269c0.095-0.181,0.273-1.23,0.492-1.312
		c-0.413,0.378-0.294-0.083-0.076-0.553c0.217-0.469,0.479-0.972,0.196-0.742c-0.001-0.142,0.376-0.794,0.524-0.788
		c-0.149,0.436,0.001,0.329,0.196,0.147c0.188-0.188,0.465-0.423,0.495-0.318c0.126-0.309-0.562,0.459-0.388,0.043
		c0.293-0.441,0.649-0.666,0.884-0.857l-0.086,0.208l0.56-0.591c-0.024-0.188-0.631,0.512-0.25-0.143
		c0.142-0.141,0.585-0.746,0.646-0.667c-0.086,0.385,0.259,0.332-0.101,0.848c0.311-0.416,1.348-1.713,0.734-1.354l0.406-0.479
		c-0.332,0.229-1.191,0.962-0.409-0.042l0.03,0.043c0,0,0.098-0.209,0.22-0.397c0.118-0.192,0.234-0.385,0.234-0.385l0.364-0.188
		c-0.055-0.038-0.001-0.181,0.229-0.413c0.115-0.009,0.351-0.209,0.407-0.118c0.667-0.671,0.541-0.694,0.575-0.841
		c0.387-0.371,0.57-0.462,0.487-0.182c0.538-0.487,1.541-1.267,2.013-1.456c0.7-0.686-0.191,0.077,0.156-0.41
		c0.468-0.07,1.172-0.444,1.904-0.95c0.369-0.25,0.782-0.471,1.167-0.717c0.193-0.121,0.386-0.238,0.572-0.354
		c0.185-0.115,0.366-0.222,0.548-0.302c-0.564-0.186,0.377-0.211,0.499-0.659c-0.263,0.251,1.505-0.318,0.274,0.337l0.759-0.375
		c0.606-0.025-1.212,0.706-0.303,0.637c0.214-0.097,0.397-0.209,0.572-0.329c0.173-0.121,0.349-0.22,0.526-0.332
		c0.355-0.218,0.745-0.425,1.294-0.536c-0.136,0.195,0.06,0.104,0.266,0.012c0.211-0.084,0.439-0.147,0.346,0.031
		c-0.197,0.141-0.489,0.223-0.78,0.342l0.198-0.01c0.484-0.159,0.774-0.209,0.928-0.287c0.154-0.07,0.185-0.128,0.183-0.188
		c-0.004-0.119-0.138-0.242,0.368-0.466c1.225-0.343,1.015-0.024,1.114,0.091c0.203,0.022,0.816-0.119,1.133-0.244
		c-0.727,0.29-1.438,0.052-1.122-0.178c0.612,0.228,1.859-0.274,2.196-0.457c-0.925-0.02-1.242,0.026-1.543,0.067
		c-0.15,0.021-0.299,0.04-0.521,0.05c-0.11,0.003-0.238,0.004-0.394,0.008c-0.156,0.011-0.338,0.021-0.56,0.029
		c-0.209,0.154-0.102,0.425-1.131,0.56c0.593-0.295-0.084-0.146-0.276-0.146c0.121,0.058-0.052,0.112-0.284,0.183
		c-0.229,0.083-0.522,0.176-0.66,0.26c-0.318-0.035,0.477-0.564-0.55-0.288l-0.062,0.432c-0.409,0.077,0.071-0.324-0.73,0.045
		c0.382-0.343-0.248-0.248,0.873-0.693c-1.491,0.117-2.004,0.966-2.953,1.517c0.093-0.067,0.083-0.12,0.175-0.188
		c-0.089,0.094-0.23,0.182-0.39,0.266c-0.15,0.093-0.312,0.191-0.454,0.275c-0.684,0.269,0.431-0.43,0.219-0.436l-1.05,0.573
		c-0.025,0-0.034-0.003-0.038-0.008c-0.253,0.192-0.496,0.364-0.643,0.334c0.25-0.276,0.312-0.457,0.478-0.661
		c0,0-0.246,0.209-0.493,0.417c-0.122,0.104-0.244,0.208-0.329,0.297c-0.086,0.086-0.145,0.144-0.145,0.144
		c0.053-0.186-0.995,0.378-0.284-0.19c0,0-0.388,0.267-0.776,0.534c-0.193,0.132-0.387,0.266-0.533,0.365
		c-0.146,0.097-0.235,0.176-0.235,0.176l-0.278-0.116c-0.334,0.313-0.312,0.359,0.137,0.058c-0.275,0.173-0.775,0.701-1.207,1.103
		c-0.107,0.102-0.212,0.193-0.307,0.272c-0.088,0.087-0.171,0.157-0.243,0.204c-0.144,0.093-0.24,0.096-0.26-0.06
		c-0.481,0.579-0.838,0.933-1.22,1.315c-0.358,0.407-0.753,0.835-1.32,1.523c0.385-0.578,0.058-0.347-0.254-0.106
		c-0.296,0.252-0.569,0.519-0.141-0.086c-0.639,0.589-0.535,0.912-0.93,1.459c-0.49,0.419-0.519,0.046-0.149-0.551l-0.425,0.703
		l-0.031-0.044c0,0-0.022,0.038-0.049,0.102c-0.027,0.062-0.063,0.146-0.1,0.229c-0.073,0.166-0.145,0.33-0.145,0.33
		c-0.547,0.525-0.306-0.025-0.783,0.587l0.095,0.269l-0.415,0.354c0.191-0.109-0.009,0.306-0.284,0.794l-0.038-0.038l-0.315,0.604
		c0.229-0.647-0.367,0.507-0.35,0.157c-0.321,0.492-0.301,0.519-0.755,1.472l0.226-0.09c-0.506,1.28-0.234-0.058-0.761,0.932
		l0.196,0.016c-0.465,0.665-0.692,1.314-0.89,1.911c-0.181,0.604-0.288,1.173-0.583,1.697c0.186-0.655-0.071-0.564-0.026-0.534
		c-0.138,0.496-0.375,1.127-0.519,1.793c-0.079,0.329-0.153,0.661-0.214,0.978c-0.03,0.159-0.055,0.312-0.076,0.459
		c-0.017,0.15-0.019,0.295-0.021,0.432c-0.336,0.316-0.432,0.39-0.771,1.443c-0.132,0.787-0.096,0.912,0.013,1.191
		c-0.104,0.375-0.17,0.925-0.227,1.383c-0.03,0.461-0.066,0.831-0.163,0.842c0.141,0.189-0.078,0.692,0.022,1.123l-0.086,0.087
		l0.188-0.06c-0.23,0.674-0.153,1.258-0.095,1.836c0.046,0.579,0.181,1.147,0.049,1.849l-0.066-0.232l0.113,0.575
		c-0.072,0.099-0.139-0.134-0.244-0.153c0,0,0.01,0.171,0.025,0.424c0.01,0.128,0.014,0.276,0.029,0.438
		c0.022,0.157,0.044,0.325,0.065,0.495c0.09,0.676,0.182,1.352,0.182,1.352l0.057-0.553c0.052,0.283,0.135,0.51,0.202,0.751
		c0.071,0.239,0.154,0.485,0.166,0.814c-0.503-1.004,0.188,0.884,0.02,1.104l-0.198-0.557c0.191,0.778,0.192,0.778,0.355,0.671
		c0.141,0.497,0.138,0.681,0.109,0.863c-0.019,0.181-0.024,0.349,0.209,0.777l-0.19-0.655c0.043-0.222,0.33,0.205,0.457,0.638
		c0.007,0.111,0.022,0.444-0.102,0.12c0.077,0.188,0.151,0.405,0.221,0.631c0.077,0.221,0.17,0.442,0.248,0.656
		c0.161,0.423,0.301,0.795,0.401,0.946c0.108,0.434-0.064,0.351-0.196,0.146c0.097,0.196,0.174,0.354,0.24,0.485
		c0.071,0.127,0.126,0.228,0.17,0.309c0.087,0.163,0.126,0.253,0.166,0.343c0.08,0.184,0.16,0.369,0.618,1.121l-0.106,0.02
		c0,0,0.095,0.122,0.189,0.243c0.104,0.114,0.207,0.229,0.207,0.229l0.25,0.852l-0.042-0.335c0.314,0.484,0.551,0.762,0.86,1.359
		c0,0-0.07-0.034-0.141-0.068c-0.068-0.037-0.135-0.075-0.135-0.075c0.489,0.656,0.726,1.064,0.954,1.476
		c0.114,0.202,0.233,0.4,0.392,0.62c0.17,0.208,0.388,0.429,0.681,0.689c0.049,0.102-0.146-0.054-0.245-0.133
		c0.562,0.472,0.685,0.722,0.818,0.972c0.067,0.126,0.134,0.251,0.259,0.4c0.138,0.138,0.332,0.301,0.644,0.505
		c-0.102-0.026-0.032,0.129-0.104,0.122l0.544,0.394l-0.181,0.112l0.598,0.16l0.146,0.441c-0.004,0.007,0.262,0.097,0.262,0.097
		c0.141,0.375,0.456,0.669,0.803,0.975c0.175,0.151,0.359,0.308,0.532,0.478c0.089,0.086,0.174,0.175,0.254,0.271
		c0.086,0.091,0.17,0.178,0.246,0.279l0.021-0.305c1.165,0.473,2.214,1.344,3.436,2.171c1.217,0.836,2.593,1.637,4.074,2.004
		l-0.119,0.178c0,0,0.315,0.053,0.637,0.08c0.317,0.032,0.635,0.063,0.635,0.063c0.599,0.353-0.436,0.055-0.266,0.219
		c0.66,0.146,0.823,0.078,0.999,0.059c0.09-0.015,0.188-0.025,0.354-0.015c0.167,0.018,0.409,0.049,0.793,0.102
		c0.757,0.28-0.303,0.107-0.686,0.092c0.362,0.062,0.771,0.1,1.191,0.155c0.42,0.053,0.859,0.079,1.283,0.125
		c0.423,0.029,0.833,0.05,1.202,0.085c0.368,0.021,0.695,0.04,0.953,0.076c0.023-0.027,0.088-0.062,0.035-0.075
		c0.967-0.086,2.244-0.041,3.3-0.211c-0.016,0.099-0.275,0.148-0.537,0.198c0.381-0.038,0.916-0.021,1.223-0.182
		c0,0-0.093,0.062-0.185,0.122c-0.094,0.062-0.187,0.116-0.187,0.116c0.41-0.046,1-0.171,1.508-0.289
		c0.508-0.124,0.941-0.199,1.056-0.13c-0.115-0.052-0.112-0.214,0.569-0.387c0.475,0.219,1.799-0.676,2.894-0.942
		c-0.094,0.131-0.867,0.433-0.646,0.354c0.566-0.111,0.976-0.46,1.396-0.736l-0.09,0.178c0,0,0.147-0.072,0.363-0.191
		c0.217-0.119,0.503-0.276,0.791-0.435c0.282-0.169,0.562-0.337,0.772-0.462c0.211-0.126,0.346-0.216,0.346-0.216
		c0.24,0.041,0.784-0.256,1.232-0.564c0.455-0.301,0.836-0.58,0.822-0.438c0.779-0.505-0.725,0.312,0.232-0.368
		c0.166-0.03,0.378-0.189,0.557-0.315c0.175-0.136,0.318-0.233,0.358-0.137l-0.087,0.094l0.656-0.491l-0.302,0.467
		c0.56-0.445,0.835-0.937,0.77-1.076c0.301-0.155,0.618-0.404,0.898-0.626c0.285-0.218,0.541-0.398,0.714-0.433l-0.154,0.2
		c0.337-0.328,0.676-0.593,1.003-0.836c0.32-0.246,0.637-0.462,0.936-0.681c0.293-0.224,0.573-0.447,0.829-0.695
		c0.249-0.254,0.471-0.537,0.656-0.868c0.096-0.064,0.125-0.021-0.034,0.15c0,0,0.201-0.213,0.392-0.437
		c0.191-0.222,0.384-0.44,0.384-0.44l-0.064,0.312c0,0,0.067-0.103,0.168-0.254c0.104-0.151,0.23-0.361,0.358-0.57
		c0.126-0.207,0.254-0.416,0.349-0.571c0.097-0.156,0.153-0.264,0.153-0.264l0.068,0.083c0.816-0.987,1.886-2.695,2.641-4.167
		l-0.074,0.241c0.179-0.416,0.326-0.717,0.451-0.954c0.119-0.241,0.221-0.416,0.317-0.578c0.197-0.32,0.361-0.597,0.576-1.226
		c0.009,0.053-0.003,0.099-0.016,0.146c0,0,0.127-0.271,0.234-0.549c0.11-0.278,0.223-0.558,0.223-0.558l-0.005,0.283
		c0.142-0.889,1.134-2.306,0.785-1.844c0.032-0.254,0.075-0.603,0.113-0.904c0.027-0.304,0.028-0.566-0.012-0.656
		c0.167-0.631,0.212-0.702,0.26-0.711c0.049-0.008,0.097,0.052,0.228-0.339c0.113-0.466,0.129-0.751,0.149-1.076
		c0.024-0.324,0.075-0.687,0.199-1.327l0.1,0.04c0.066-0.605,0.021-0.996,0.063-1.846l0.034,0.256
		c-0.08-0.701,0.028-1.128,0.062-1.53c0.039-0.398,0.068-0.767-0.2-1.302c0.066-0.592-0.143-1.694,0.073-1.668
		c-0.376-1.725-0.771-3.044-1.455-4.644c0.206-0.379-0.146-0.343-0.396-1.387l-0.133,0.147c-0.512-1.116-1.082-2.307-1.772-3.479
		c-0.34-0.591-0.733-1.148-1.142-1.704c-0.445-0.548-0.896-1.101-1.438-1.539l0.067-0.187l-0.55-0.229
		c-0.267-0.271-0.56-0.511-0.861-0.757c-0.301-0.243-0.604-0.503-0.925-0.747c-0.663-0.451-1.321-0.954-2.026-1.336
		c-0.348-0.2-0.687-0.406-1.029-0.587c-0.349-0.167-0.688-0.332-1.016-0.488c-0.165-0.079-0.324-0.154-0.482-0.23
		c-0.163-0.063-0.32-0.126-0.475-0.188c-0.309-0.121-0.601-0.233-0.871-0.337c-0.367-0.104-0.856-0.145-1.377-0.249
		c-0.521-0.114-1.095-0.205-1.668-0.373l0.128,0.004c-2.048-0.367-4.215-0.541-6.463-0.615c0.139-0.079-0.085-0.128,0.166-0.183
		c-0.532,0.216-1.325,0.026-1.813,0.08l0.575,0.091c-0.627,0.229-1.552,0.126-1.896,0.046l-0.98,0.345
		c-0.067-0.007-0.176-0.02-0.194-0.048l-0.162,0.122c0,0-0.144-0.038-0.286-0.067c-0.144-0.03-0.288-0.061-0.288-0.061
		c-0.121,0.051-0.509,0.163-0.909,0.303c-0.402,0.134-0.806,0.348-0.978,0.509c-0.115-0.049-1.05,0.154-0.354-0.091
		c0,0-0.227,0.057-0.562,0.155c-0.334,0.114-0.78,0.265-1.226,0.416c-0.445,0.146-0.875,0.354-1.203,0.485
		c-0.328,0.141-0.546,0.231-0.546,0.231l0.576-0.162c0.07,0.067-0.141,0.243-0.436,0.42c-0.29,0.195-0.662,0.406-0.94,0.507
		c0.608-0.493-0.063-0.262-0.426-0.218c-0.407,0.332,0.476-0.073,0.285,0.145c-0.126,0.105-0.299,0.22-0.48,0.355
		c-0.179,0.14-0.374,0.285-0.564,0.419c-0.381,0.269-0.743,0.492-0.9,0.573c0,0,0.271-0.295,0.275-0.288
		c-0.346,0.279-0.633,0.435-0.936,0.573c-0.3,0.142-0.611,0.272-0.934,0.587c-0.499,0.643-1.021,0.948-0.676,1.062
		c-0.734,0.885-0.457,0.179-0.734,0.432c-0.292,0.468-1.323,1.719-1.585,1.8c0.026,0.409-0.448,1.031-0.84,1.661
		c-0.368,0.642-0.74,1.241-0.591,1.431l-0.541,0.826c0.044,0.032,0.104,0.113,0.126,0.278c0.019,0.165-0.001,0.408-0.07,0.79
		c-0.288,0.669-0.421,0.463-0.58,0.652l0.257,0.561c-0.135,0.5-0.256,1.028-0.369,1.579c-0.09,0.55-0.126,1.118-0.179,1.701
		c-0.039,0.582,0.004,1.169,0.013,1.77c0,0.302,0.037,0.595,0.074,0.887c0.036,0.294,0.073,0.588,0.11,0.883
		c0.306,2.346,1.027,4.759,1.939,6.858c0.246,0.447,0.566,0.896,0.871,1.368c0.318,0.467,0.7,0.919,1.06,1.395
		c0.396,0.446,0.792,0.906,1.208,1.348c0.215,0.214,0.429,0.428,0.643,0.641l0.316,0.322l0.333,0.299l-0.233-0.136
		c0,0,0.433,0.407,0.864,0.813c0.218,0.204,0.459,0.378,0.629,0.522c0.176,0.139,0.292,0.229,0.292,0.229s-0.321-0.288-0.646-0.58
		c-0.163-0.139-0.303-0.309-0.417-0.423c-0.111-0.115-0.186-0.193-0.186-0.193c0.209,0.149,0.4,0.276,0.589,0.403
		c0.198,0.114,0.389,0.233,0.587,0.383c0.979,0.841,2.257,1.688,3.724,2.343c1.465,0.653,3.125,1.122,4.762,1.189
		c0.537-0.05,0.887-0.079,1.146-0.047c0.261,0.021,0.43,0.097,0.602,0.144c0.172,0.053,0.34,0.106,0.596,0.126
		c0.254,0.011,0.599,0.021,1.102-0.132c-0.17,0.062-0.23,0.132-0.386,0.192c0.554-0.101,1.04-0.188,1.491-0.286
		c0.448-0.127,0.861-0.249,1.271-0.376c0.402-0.151,0.801-0.325,1.223-0.509c0.417-0.193,0.842-0.457,1.319-0.729
		c-0.021,0.538,1.262-0.697,1.196-0.396l0.07-0.246c0.477-0.158,1.446-0.815,1.389-0.613c0,0,0.042-0.046,0.104-0.116
		c0.057-0.077,0.132-0.179,0.209-0.279c0.148-0.202,0.298-0.402,0.298-0.402l0.186,0.081c0.124-0.106,0.265-0.229,0.416-0.364
		c0.146-0.139,0.289-0.305,0.444-0.471c0.302-0.338,0.656-0.686,0.932-1.062c0.286-0.37,0.587-0.708,0.822-0.997
		c0.231-0.291,0.439-0.514,0.608-0.609c0.715-1.43,1.528-3.28,2.02-5.268l0.106-0.369l0.082-0.378l0.161-0.757l0.163-0.756
		c0.038-0.256,0.076-0.509,0.114-0.762c0.086-0.503,0.124-1.012,0.181-1.507c0.028-0.504,0.076-0.992,0.072-1.483
		c-0.142-0.544-0.208-1.681-0.364-2.587c0,0,0.007-0.062,0.009-0.157c0.003-0.095,0.007-0.223,0.011-0.348
		c0.006-0.256,0.012-0.512,0.012-0.512c-0.281-0.938-0.87-1.821-1.145-2.708c0.025-0.006,0.058,0.02,0.099,0.073
		c-0.464-0.894-0.93-1.805-1.719-2.412c-0.726-0.867-1.55-1.625-1.146-1.569c-0.165,0.113-0.621-0.287-1.098-0.64
		c-0.23-0.19-0.467-0.359-0.643-0.493c-0.177-0.137-0.295-0.224-0.295-0.224s-0.205-0.098-0.593-0.283
		c-0.196-0.088-0.44-0.184-0.73-0.298c-0.29-0.1-0.627-0.224-1.005-0.323c-1.514-0.438-3.733-0.73-6.302-0.392
		c-1.284,0.158-2.651,0.48-4.062,0.986c-1.404,0.521-2.855,1.222-4.265,2.244c-1.396,1.021-2.8,2.357-3.794,4.271
		c-0.49,0.951-0.854,2.055-0.979,3.224c-0.128,1.167-0.004,2.379,0.326,3.476c0.327,1.104,0.842,2.086,1.427,2.941
		c0.145,0.227,0.3,0.42,0.452,0.623l0.234,0.3l0.213,0.256c0.284,0.335,0.567,0.67,0.88,1c0.608,0.665,1.272,1.312,2.026,1.926
		c0.755,0.61,1.591,1.198,2.61,1.671c1.013,0.467,2.252,0.829,3.638,0.767c0.688-0.037,1.385-0.188,2.031-0.435
		c0.638-0.258,1.22-0.598,1.71-0.987c0.979-0.782,1.643-1.687,2.13-2.56c0.485-0.882,0.813-1.755,1.055-2.606
		c0.471-1.711,0.602-3.351,0.491-4.941c-0.061-0.795-0.187-1.581-0.409-2.357c-0.049-0.192-0.121-0.391-0.187-0.585l-0.052-0.146
		l-0.068-0.173l-0.144-0.337c-0.214-0.471-0.477-0.926-0.778-1.312c-0.604-0.78-1.372-1.353-2.198-1.624
		c-0.824-0.279-1.675-0.272-2.419-0.093c-0.739,0.18-1.431,0.521-1.93,0.873c-0.064,0.043-0.128,0.087-0.191,0.131l-0.147,0.116
		c-0.093,0.079-0.185,0.157-0.273,0.23c-0.18,0.15-0.319,0.308-0.467,0.449c-0.128,0.198-0.366,0.514-0.532,0.753
		c-0.155,0.245-0.22,0.422,0.007,0.356c-0.29,0.312-0.552,0.482-0.736,0.608c-0.189,0.125-0.312,0.201-0.303,0.32
		c0.875-0.727,0.099,0.564,1.015-0.057l-0.449,0.524c-0.007,0.189,0.55-0.772,0.597-0.488l-0.091-0.375
		c0.445-0.358,0.742-0.5,0.965-0.542c0.165-0.22,0.257-0.467,0.461-0.745c0.112-0.135,0.239-0.273,0.445-0.417
		c0.228-0.144,0.51-0.296,0.902-0.392c0,0-0.101,0.046-0.199,0.093c-0.101,0.047-0.198,0.098-0.198,0.098
		c0.59-0.275,0.798-0.254,0.871-0.214c0.076,0.042,0.035,0.128,0.16,0.119l-0.256,0.072c0,0,0.062-0.006,0.156-0.017
		c0.093-0.014,0.215-0.026,0.339-0.023c0.125,0.001,0.243-0.006,0.334,0.006c0.09,0.011,0.15,0.019,0.15,0.019
		c-0.183-0.029-0.394,0.014-0.598,0.06c-0.199,0.062-0.388,0.144-0.525,0.223c-0.273,0.169-0.372,0.281-0.098,0.153
		c0.624-0.185,0.545-0.15,0.417-0.16c-0.127,0-0.309-0.003,0.178-0.17c0.624-0.132,0.443,0.093,0.42,0.19
		c0,0,0.064-0.006,0.163-0.013c0.099-0.008,0.229-0.022,0.361-0.008c0.131,0.002,0.264,0.018,0.358,0.043
		c0.097,0.021,0.163,0.032,0.163,0.032c-0.042,0.071-0.207,0.033-0.319,0.008c-0.113-0.01-0.167-0.021,0.02,0.084
		c0,0,0.325,0.01,0.637,0.113c0.31,0.105,0.588,0.291,0.588,0.291c-0.021,0.247,0.256,0.435,0.505,0.742
		c0.253,0.295,0.503,0.707,0.416,1.047c-0.413-0.797-0.085,0.125-0.263,0.035c0,0,0.012,0.031,0.031,0.084
		c0.021,0.052,0.049,0.128,0.075,0.224c0.062,0.189,0.129,0.448,0.187,0.708c0.113,0.522,0.15,1.061,0.15,1.061
		c-0.036,0.205-0.172-0.547-0.12-0.228c-0.071,0.406,0.14,0.65,0.145,0.871c-0.055,0.096-0.049,0.495-0.088,0.863
		c-0.041,0.369-0.114,0.701-0.242,0.656c-0.171,0.7-0.131,0.854-0.07,1.009c0.056,0.153,0.132,0.303-0.115,0.938
		c-0.189,0.132,0.22-1.044-0.08-0.503c0,0-0.062,0.339-0.147,0.676c-0.046,0.166-0.091,0.333-0.126,0.458
		c-0.039,0.124-0.064,0.204-0.064,0.204c-0.027-0.146-0.146-0.334,0.03-0.81c-0.61,1.727-1.653,2.828-2.633,3.229
		c-0.244,0.102-0.479,0.169-0.708,0.192c-0.227,0.038-0.454,0.023-0.687,0.008c-0.469-0.06-0.997-0.183-1.655-0.469
		c-0.135-0.182-0.054-0.173,0.093-0.12c0.146,0.048,0.362,0.125,0.503,0.113c-0.451-0.111-0.845-0.326-1.168-0.575
		c-0.326-0.25-0.587-0.528-0.826-0.819c-0.479-0.59-0.873-1.2-1.54-1.942l-0.14,0.076c-0.092-0.156-0.186-0.312-0.284-0.466
		l-0.147-0.229l-0.123-0.212c-0.173-0.276-0.317-0.556-0.458-0.831c-0.276-0.553-0.471-1.102-0.551-1.633
		c-0.081-0.532-0.061-1.057,0.111-1.584c0.161-0.525,0.459-1.055,0.886-1.521c0,0-0.066,0.042-0.137,0.084
		c-0.062,0.047-0.125,0.093-0.125,0.093c0.067-0.368,0.429-0.843,0.717-1.206c0.053,0.003,0.053,0.121,0.104,0.159
		c0.051,0.041,0.149,0.005,0.425-0.281c-0.157,0.066-0.449,0.251-0.426,0.129c0.496-0.339,1.145-0.765,1.946-1.184
		c0.797-0.425,1.752-0.825,2.789-1.131c1.039-0.303,2.161-0.506,3.256-0.547c1.094-0.041,2.153,0.077,3.04,0.349
		c1.228,0.271,2.311,0.839,3.095,1.676c0.794,0.832,1.308,1.96,1.558,3.265c0.254,1.308,0.227,2.768,0.061,4.23
		c-0.171,1.466-0.532,2.874-0.971,4.176c0.152-0.386,0.267-0.479,0.327-0.392c0.07,0.094,0.038,0.347-0.118,0.632
		c-0.311,0.35-0.513,0.7-0.723,1.02c-0.204,0.322-0.32,0.683-0.506,0.988c-0.323,0.647-0.689,1.312-1.414,1.766
		c-0.929,1.169-2.163,1.902-3.425,2.361c-1.277,0.463-2.579,0.688-4.001,0.92l-0.051-0.188c-0.415-0.113-0.534,0.02-0.979-0.001
		l0.016-0.05c-0.257-0.058-0.53-0.099-0.804-0.13c-0.272-0.039-0.545-0.103-0.807-0.144c-0.264-0.034-0.505-0.108-0.719-0.176
		c-0.216-0.062-0.4-0.126-0.54-0.19l-0.107,0.179c-0.605-0.233-0.248-0.278-0.905-0.417l0.061-0.088c0,0-0.048-0.006-0.119-0.024
		c-0.073-0.017-0.169-0.039-0.266-0.06c-0.195-0.044-0.39-0.088-0.39-0.088c0.06-0.072-0.013-0.162-0.158-0.258
		c-0.143-0.104-0.348-0.239-0.579-0.367c-0.115-0.062-0.233-0.129-0.352-0.195c-0.118-0.067-0.223-0.149-0.326-0.221
		c-0.202-0.146-0.371-0.281-0.451-0.389c-0.185-0.103-0.378-0.27-0.613-0.436c-0.116-0.084-0.239-0.175-0.367-0.268
		c-0.124-0.097-0.24-0.211-0.365-0.319c-0.508-0.434-0.986-0.984-1.35-1.512c0.01-0.158-0.227-0.543-0.492-1.018
		c-0.125-0.24-0.26-0.505-0.395-0.763c-0.143-0.25-0.224-0.529-0.318-0.759c-0.462-0.85-0.87-1.96-1.181-3.197
		c-0.064-0.314-0.134-0.634-0.201-0.957c-0.061-0.323-0.094-0.654-0.14-0.981c-0.12-0.665-0.092-1.293-0.118-1.913l-0.231,0.047
		c-0.022-0.004,0.003-0.648,0.003-0.648c0.049,0.01,0.083-0.074,0.102,0.023c0.154-0.241,0.131-0.611,0.142-0.979
		c0.024-0.362,0.033-0.737,0.149-0.973c-0.255,0.275-0.095,0.433-0.155,0.785c-0.193,0.502-0.338-0.018-0.119-0.708l0.049,0.022
		c0,0-0.016-0.126-0.026-0.251c-0.008-0.125-0.003-0.247-0.003-0.247c0.194-0.015,0.386-0.412,0.575-0.415
		c0.087-0.505,0.266-0.933,0.375-1.369c0.048-0.224,0.149-0.416,0.224-0.623c0.077-0.207,0.154-0.408,0.231-0.611
		c0.098-0.193,0.202-0.388,0.304-0.584c0.112-0.192,0.195-0.407,0.342-0.589c0.276-0.379,0.545-0.791,0.948-1.159
		c0.002,0.149,0.253-0.144,0.502-0.403c0.276-0.238,0.54-0.445,0.499-0.168c0.867-0.972-0.351-0.07-0.076-0.661
		c0.267-0.259,0.547-0.551,0.676-0.494c-0.088,0.174,0.372-0.012,0.15,0.198c0,0,0.683-0.562,0.7-0.545
		c0.085-0.022-0.051,0.124-0.121,0.195c0.355-0.281,0.704-0.531,1.065-0.736c0.374-0.185,0.733-0.355,1.098-0.508
		c0.376-0.134,0.743-0.266,1.105-0.419c0.375-0.126,0.747-0.271,1.121-0.464c0.077-0.165-0.634,0.192-0.562,0.028
		c0.374-0.208,0.658-0.331,0.899-0.383c0.239-0.061,0.425-0.083,0.607-0.1c0.362-0.048,0.72-0.028,1.477-0.291l-0.285,0.243
		c0.467-0.237,0.673-0.413,1.529-0.397c0.174,0.19-0.684,0.273-1.062,0.435c0.282-0.045,0.782-0.125,1.153-0.22
		c0.367-0.097,0.621-0.159,0.387-0.24c0.688-0.122,0.954,0.024,1.328,0.07c0.011-0.063-0.655-0.093-0.253-0.226
		c0.238,0.013,0.509,0.039,0.799,0.045c0.289,0.018,0.596-0.001,0.91,0.031c0.313,0.018,0.636,0.035,0.947,0.054
		c0.316,0.013,0.621,0.066,0.908,0.096c-0.016,0.049,0.058,0.137-0.046,0.151C396.888,277.712,396.728,278.192,397.972,278.336z"/>
	<path fill="#F6AF29" d="M387.964,319.944l0.479,0.022c-0.001-0.046,0.02-0.101,0.235-0.156L387.964,319.944z"/>
	<path fill="#F6AF29" d="M407.63,309.206c0.022-0.06,0.048-0.117,0.06-0.178C407.626,309.132,407.622,309.177,407.63,309.206z"/>
	<path fill="#F6AF29" d="M410.279,304.204c-0.135,0.383,0.071,0.086,0.207-0.068C410.452,304.109,410.402,304.097,410.279,304.204z"
		/>
	<path fill="#F6AF29" d="M375.652,316.325c0.084,0.034,0.146,0.041,0.157-0.003C375.691,316.287,375.655,316.296,375.652,316.325z"
		/>
	<path fill="#F6AF29" d="M366.944,283.229c-0.028,0.039-0.051,0.076-0.089,0.124C366.88,283.332,366.913,283.288,366.944,283.229z"
		/>
	<path fill="#F6AF29" d="M365.926,285.055c-0.034,0.096-0.077,0.221-0.11,0.409C365.88,285.291,365.915,285.163,365.926,285.055z"/>
	<path fill="#F6AF29" d="M383.675,319.98c0.132,0.024,0.265,0.027,0.385,0.009C383.856,319.953,383.747,319.968,383.675,319.98z"/>
	<path fill="#F6AF29" d="M365.746,285.893l-0.163,0.498c0.013,0.006,0.021,0.015,0.038,0.02L365.746,285.893z"/>
	<path fill="#F6AF29" d="M367.227,282.641c-0.087,0.182-0.195,0.433-0.282,0.587C367.1,283.013,367.18,282.827,367.227,282.641z"/>
	<path fill="#F6AF29" d="M366.766,306.177c0.01,0.014,0.02,0.03,0.029,0.049C367.055,306.552,366.908,306.341,366.766,306.177z"/>
	<path fill="#F6AF29" d="M365.526,288.181c-0.007,0.019-0.015,0.044-0.022,0.064l0.025,0.16L365.526,288.181z"/>
	<path fill="#F6AF29" d="M368.256,280.66c-0.041,0.09-0.073,0.173-0.084,0.247c0.042-0.068,0.092-0.148,0.154-0.249
		C368.291,280.67,368.271,280.669,368.256,280.66z"/>
	<path fill="#F6AF29" d="M364.905,298.637c-0.099-0.134-0.158-0.183-0.197-0.181C364.735,298.629,364.786,298.73,364.905,298.637z"
		/>
</g>
<g>
	<rect x="338.963" y="362.263" fill="#A8D8D4" width="106.035" height="106.036"/>
	<g>
		<path fill="#FFFFFF" d="M374.12,399.109h13.278v-3.889h-16.684c-7.331,0-13.296-5.964-13.296-13.295v-19.538h-3.887v19.538
			c0,9.313,7.447,16.915,16.699,17.173v7.834h-31.269v3.888h35.157V399.109L374.12,399.109z"/>
		<path fill="#FFFFFF" d="M407.704,442.603h5.461c11.581,0,21.006-9.424,21.006-21.006V407.07l10.827-0.086v-3.887l-12.773,0.087
			h-0.025c-4.813,0-9.47-2.007-12.776-5.507l-8.168-8.642l-2.825,2.671l8.166,8.644c3.599,3.806,8.504,6.158,13.687,6.63v14.617
			c0,9.438-7.679,17.117-17.115,17.117H365.5v3.889h38.316v25.572h3.888v-10.589h37.294v-3.892h-37.294V442.603L407.704,442.603z"/>
	</g>
	<g>
		<g>
			<path fill="#595654" d="M412.614,372.811c0.105-0.456,0.439-1.287,1.513-1.728l21.354-8.767h-23.015l-2.735,1.069
				c-3.311,1.299-5.728,3.871-6.61,7.126c-0.91,3.352-0.083,7.002,2.34,9.989c1.017,1.254,0.701,2.52,0.517,3.008
				c-0.186,0.49-0.798,1.67-2.436,1.975l-9.911,1.827c-3.989,0.736-7.331,3.392-8.958,7.191c-1.679,3.92-1.244,8.376,1.26,11.891
				c1.34,1.882,1.506,4.335,0.408,6.57c-1.119,2.272-3.218,3.676-5.605,3.716l-4.189,0.073c-6.597,0.114-12.904,4.556-16.195,11.604
				c-3.463,7.423-2.837,16.101,1.89,21.948l0.447,0.554l-23.722,13.728v3.66h24.423l4.646-2.854
				c4.128-2.539,7.131-7.225,8.06-12.427c0.898-5.03-0.261-9.889-3.035-13.071l-0.948-1.087c-1.836-2.108-1.085-4.594-0.681-5.558
				c0.4-0.953,1.609-3.155,4.269-3.209l4.397-0.089c7.183-0.146,13.607-4.702,16.656-11.602c2.901-6.562,2.088-13.799-1.876-18.979
				c-0.313-0.409-0.257-0.813-0.154-1.083c0.1-0.267,0.328-0.604,0.832-0.703l10.306-2.003c4.769-0.928,8.473-4.132,9.904-8.449
				c1.379-4.168,0.396-8.654-2.523-12.042C412.454,374.18,412.511,373.271,412.614,372.811z"/>
		</g>
	</g>
</g>
<g>
	<g>
		<path fill="#443831" d="M341.086,226.71c3.109-10.148,6.414-21.977,13.663-30.098c2.981-3.342,5.939-4.052,9.198-2.442
			c6.407,3.165,12.435,12.983,20.632,10.71c5.956-1.651,7.638-9.477,10.104-14.164c4.484-8.521,12.787-19.684,23.771-16.469
			c8.813,2.58,11.989,12.877,14.163,20.695c1.099,3.943,1.847,7.982,2.05,12.073c0.071,1.463,0.059,2.96-0.222,4.4
			c-0.246,1.278-0.717,1.046,0.127,1.034c-15.607,0.222-30.563,2.221-45.974,4.722c-17.067,2.771-34.25,4.871-51.52,2.778
			c-5.312-0.644-5.25,7.673,0,8.311c29.85,3.618,58.47-6.031,88.044-7.519c4.252-0.214,9.426,1.032,13.344-0.978
			c2.68-1.375,3.826-4.771,4.227-7.53c1.187-8.199-1.047-17.024-3.684-24.738c-2.867-8.39-6.869-15.531-14.896-19.828
			c-9.48-5.074-19.479-1.352-26.815,5.503c-3.705,3.463-6.648,7.857-9.169,12.224c-2.028,3.513-3.171,7.516-5.35,10.918
			c-0.2,0.313-0.786,0.714-0.801,0.722c0.656-0.372-0.072-0.175,0.398-0.09c-1.076-0.194-2.315-1.062-3.831-2.201
			c-6.038-4.542-12.122-11.014-20.911-9.458c-5.219,0.924-9.127,5.509-12.008,9.575c-6.144,8.668-9.482,19.611-12.557,29.641
			C331.499,229.639,339.522,231.818,341.086,226.71L341.086,226.71z"/>
	</g>
</g>
</svg>
